<svg xmlns="http://www.w3.org/2000/svg" width="1284" height="630" viewBox="0 0 1284 630" fill="none">
<path opacity="0.1" d="M285.5 87.5C186.068 45.1196 69.3286 120.278 0 142.435V1H1284V177.419C1272.81 161.259 1129 94.5001 1206.5 172C1284 249.5 988 225.349 932.871 133.391C877.742 41.4337 696.655 91.4442 696.077 160.972C695.5 230.5 409.79 140.476 285.5 87.5Z" fill="#003297"/>
<path opacity="0.2" d="M285.5 129.713C186.068 66.1605 69.3287 178.867 0 212.092V0H1284V264.553C1272.81 240.321 1129 140.21 1206.5 256.427C1284 372.644 988 336.428 932.871 198.53C877.742 60.6334 696.655 135.628 696.077 239.89C695.5 344.152 409.79 209.154 285.5 129.713Z" fill="#003297"/>
<path opacity="0.2" d="M285.5 541.27C186.068 584.743 69.3287 507.646 0 484.919V630H1284V449.033C1272.81 465.609 1129 534.089 1206.5 454.591C1284 375.093 988 399.867 932.871 494.195C877.742 588.524 696.655 537.224 696.077 465.904C695.5 394.583 409.79 486.928 285.5 541.27Z" fill="#003297"/>
</svg>