<svg xmlns="http://www.w3.org/2000/svg" width="530" height="398" viewBox="0 0 530 398" fill="none">
<path opacity="0.3" d="M135.349 88.6689C103.708 113.46 84.9987 158.96 87.9269 206.475C89.4507 230.762 96.3672 254.347 115.023 267.001C165.002 300.907 382.819 300.656 412.512 241.402C443.093 180.372 432.586 95.3999 363.05 59.6249C302.789 28.7259 217.088 24.6449 135.349 88.6689Z" fill="#D7E1E9"/>
<path d="M348.343 186.825L381.468 185.142C381.468 185.142 386.9 180.2 391.498 180.2C396.096 180.2 397.779 191.091 384.807 192.761C384.807 192.761 365.541 208.661 335.782 202.818C306.022 196.974 311.879 181.008 348.343 186.825Z" fill="#F4A28C"/>
<path opacity="0.45" d="M273.03 383.707C363.075 383.707 436.071 373.521 436.071 360.957C436.071 348.392 363.075 338.206 273.03 338.206C182.984 338.206 109.988 348.392 109.988 360.957C109.988 373.521 182.984 383.707 273.03 383.707Z" fill="#D7E1E9"/>
<path d="M213.709 241.6L234.525 356.491L242.356 357.167L244.303 244.264L213.709 241.6Z" fill="#F4A28C"/>
<path d="M249.192 251.472L342.101 322.187L348.342 317.404L273.559 232.789L249.192 251.472Z" fill="#F4A28C"/>
<path d="M173.548 79.7385L159.861 56.2595L152.706 60.526L168.195 97.4405L180.2 90.153L173.548 79.7385Z" fill="#F4A28C"/>
<path d="M273.48 208.714C271.406 206.395 270.204 203.426 270.078 200.318C269.952 197.209 270.911 194.153 272.791 191.674L279.562 182.757C302.325 220.467 355.418 213.563 355.418 213.563L359.075 178.332C340.525 183.075 305.757 166.407 301.332 146.532C296.906 126.657 264.709 120.972 264.709 120.972L253.857 114.692C230.139 106.941 218.493 119.223 212.901 135.706C212.901 135.706 197.544 174.714 200.34 195.08C203.136 215.445 207.535 317.324 207.535 317.324L332.098 274.275L273.48 208.714Z" fill="#192038"/>
<path d="M234.366 354.769C234.366 354.769 230.934 360.97 225.343 361.593C219.751 362.215 220.228 370.192 229 367.926C231.722 367.236 234.381 366.318 236.95 365.183C239.339 364.206 241.945 363.877 244.502 364.229C244.996 364.26 245.488 364.139 245.911 363.883C246.335 363.628 246.671 363.249 246.874 362.798C248.928 359.42 241.574 353.59 241.574 353.59L234.366 354.769Z" fill="#4F87FB"/>
<path d="M341.73 322.041C341.73 322.041 346.567 327.222 345.44 332.721C344.314 338.219 352.065 340.247 352.595 331.21C352.786 328.398 352.738 325.574 352.45 322.77C352.261 320.194 352.75 317.613 353.867 315.284C354.039 314.83 354.071 314.336 353.96 313.864C353.849 313.392 353.6 312.963 353.245 312.634C350.595 309.639 344.195 312.766 344.195 312.766L341.73 322.041Z" fill="#4F87FB"/>
<path d="M247.325 114.877C247.325 114.877 192.457 108.411 178.796 75.3792L145.949 102.316C145.949 102.316 187.899 148.837 230.431 143.219L247.325 114.877Z" fill="#192038"/>
<path d="M264.112 94.8038C262.053 97.0908 260.31 99.6444 258.932 102.396C258.658 103.073 258.662 103.83 258.942 104.505C259.223 105.179 259.756 105.716 260.429 106C261.493 106.518 262.683 106.718 263.858 106.577C265.033 106.436 266.142 105.96 267.054 105.205L271.281 102.356C272.069 101.693 272.633 100.802 272.894 99.8054C273.155 98.8088 273.1 97.7557 272.738 96.7913C271.625 93.1608 266.246 92.1803 264.112 94.8038Z" fill="#F4A28C"/>
<path d="M269.664 102.9L264.642 121.012L254.016 115.5L262.456 104.927L269.664 102.9Z" fill="#F4A28C"/>
<path d="M255.884 113.168C255.884 113.168 241.826 110.757 234.035 111.949C226.244 113.142 202.421 131.308 228.497 150.043C254.573 168.779 283.272 169.322 301.266 146.572C301.266 146.572 299.941 134.647 286.691 127.863C273.441 121.079 255.884 113.168 255.884 113.168Z" fill="#4F87FB"/>
<path opacity="0.08" d="M261.846 115.885C261.846 115.885 253.764 123.835 262.681 131.533C271.598 139.231 275.931 130.817 278.581 142C281.231 153.183 298.708 139.35 298.708 139.35C298.708 139.35 294.64 132.248 289.552 129.479L261.846 115.885Z" fill="#192038"/>
<path d="M265.954 102.131C265.954 102.131 267.279 100.448 268.445 101.548C269.611 102.648 267.729 105.072 265.795 103.999L265.954 102.131Z" fill="#F4A28C"/>
<path d="M264.113 94.8037C265.828 96.5549 266.841 98.8743 266.961 101.323C267.054 105.298 258.879 118.548 264.868 121.781C270.857 125.014 275.216 121.171 279.257 128.406C283.299 135.64 292.892 129.161 294.23 122.867C295.568 116.573 293.329 112.373 285.551 110.134C277.773 107.895 279.403 96.884 279.403 96.884L264.113 94.8037Z" fill="#FFD200"/>
<path d="M261.33 98.5137L258.812 99.2822C258.671 99.3232 258.542 99.3986 258.437 99.5018C258.332 99.6049 258.255 99.7325 258.211 99.8731C258.168 100.014 258.16 100.163 258.189 100.307C258.217 100.452 258.281 100.586 258.375 100.7L259.819 102.29L261.33 98.5137Z" fill="#F4A28C"/>
<path opacity="0.31" d="M261.356 106.358C262.724 106.786 264.179 106.859 265.583 106.57C265.583 106.57 263.741 109.683 258.852 109.445L261.356 106.358Z" fill="#CE8172"/>
<path d="M255.182 83.4749L278.753 80.6792L294.6 98.6064L273.029 104.264L264.112 94.8037L255.182 83.4749Z" fill="#192038"/>
<path d="M290.957 98.5137C290.957 98.5137 289.42 109.67 301.265 109.458C313.111 109.246 317.165 118.031 317.165 118.031" stroke="#192038" stroke-miterlimit="10"/>
<path d="M316.847 120.283C318.757 120.283 320.305 118.735 320.305 116.825C320.305 114.915 318.757 113.367 316.847 113.367C314.937 113.367 313.389 114.915 313.389 116.825C313.389 118.735 314.937 120.283 316.847 120.283Z" fill="#4F87FB"/>
<path d="M165.139 29.1714L126.082 56.6926L131.432 64.2853L170.489 36.7641L165.139 29.1714Z" fill="#FFD200"/>
<path d="M144.677 40.9291L157.065 49.0513L150.586 53.6358L138.966 44.9571L144.677 40.9291Z" fill="#192038"/>
<path d="M206.66 299.503L317.112 257.474L332.098 274.222L207.468 317.351L206.66 299.503Z" fill="#4F87FB"/>
<path opacity="0.08" d="M307.215 282.834C307.215 282.834 251.472 229.278 255.182 200.817C258.892 172.356 275.971 163.969 285.856 170.859C295.74 177.749 299.755 199.518 356.624 201.811L355.418 213.563C355.418 213.563 303.134 220.387 279.562 182.757L272.791 191.674C270.945 194.167 270.007 197.216 270.132 200.316C270.257 203.415 271.439 206.379 273.48 208.714L332.098 274.275L307.215 282.834Z" fill="#192038"/>
<path d="M159.861 56.2594C159.861 56.2594 158.31 46.9844 152.706 44.0694C147.101 41.1544 140.887 50.6944 152.706 60.5259L159.861 56.2594Z" fill="#F4A28C"/>
<path d="M459.02 51.9666C461.91 51.9666 464.254 49.6234 464.254 46.7329C464.254 43.8424 461.91 41.4991 459.02 41.4991C456.129 41.4991 453.786 43.8424 453.786 46.7329C453.786 49.6234 456.129 51.9666 459.02 51.9666Z" fill="#A3A6AF"/>
<path d="M368.005 121.118C370.896 121.118 373.239 118.775 373.239 115.884C373.239 112.994 370.896 110.651 368.005 110.651C365.115 110.651 362.771 112.994 362.771 115.884C362.771 118.775 365.115 121.118 368.005 121.118Z" fill="#A3A6AF"/>
<path d="M159.861 246.954C162.751 246.954 165.094 244.61 165.094 241.72C165.094 238.829 162.751 236.486 159.861 236.486C156.97 236.486 154.627 238.829 154.627 241.72C154.627 244.61 156.97 246.954 159.861 246.954Z" fill="#A3A6AF"/>
<path d="M57.3461 208.595C60.2366 208.595 62.5798 206.252 62.5798 203.361C62.5798 200.471 60.2366 198.127 57.3461 198.127C54.4555 198.127 52.1123 200.471 52.1123 203.361C52.1123 206.252 54.4555 208.595 57.3461 208.595Z" fill="#A3A6AF"/>
<path d="M428.757 319.391C431.648 319.391 433.991 317.048 433.991 314.158C433.991 311.267 431.648 308.924 428.757 308.924C425.867 308.924 423.523 311.267 423.523 314.158C423.523 317.048 425.867 319.391 428.757 319.391Z" fill="#A3A6AF"/>
<path opacity="0.36" d="M70.5697 45.4476C73.4602 45.4476 75.8034 43.1044 75.8034 40.2139C75.8034 37.3233 73.4602 34.9801 70.5697 34.9801C67.6792 34.9801 65.3359 37.3233 65.3359 40.2139C65.3359 43.1044 67.6792 45.4476 70.5697 45.4476Z" fill="#A3A6AF"/>
<path opacity="0.36" d="M269.664 23.1742C272.555 23.1742 274.898 20.8309 274.898 17.9404C274.898 15.0499 272.555 12.7067 269.664 12.7067C266.774 12.7067 264.431 15.0499 264.431 17.9404C264.431 20.8309 266.774 23.1742 269.664 23.1742Z" fill="#A3A6AF"/>
<path opacity="0.36" d="M145.949 149.778C148.839 149.778 151.182 147.435 151.182 144.544C151.182 141.654 148.839 139.31 145.949 139.31C143.058 139.31 140.715 141.654 140.715 144.544C140.715 147.435 143.058 149.778 145.949 149.778Z" fill="#A3A6AF"/>
<path opacity="0.36" d="M100.713 327.09C103.604 327.09 105.947 324.746 105.947 321.856C105.947 318.965 103.604 316.622 100.713 316.622C97.8227 316.622 95.4795 318.965 95.4795 321.856C95.4795 324.746 97.8227 327.09 100.713 327.09Z" fill="#A3A6AF"/>
<path opacity="0.36" d="M480.021 185.407C482.911 185.407 485.255 183.064 485.255 180.174C485.255 177.283 482.911 174.94 480.021 174.94C477.13 174.94 474.787 177.283 474.787 180.174C474.787 183.064 477.13 185.407 480.021 185.407Z" fill="#A3A6AF"/>
</svg>