<svg width="77" height="27" viewBox="0 0 77 27" fill="none" xmlns="http://www.w3.org/2000/svg">
<path d="M0.742921 13.4531C1.09052 13.413 1.44479 13.3461 1.80576 13.2526C2.18009 13.1456 2.44078 13.032 2.58784 12.9116V2.08276C2.07982 1.81539 1.42474 1.6349 0.622601 1.54132L0.722868 0.819395H9.66672L9.82715 3.86752C9.65335 3.93437 9.46619 3.96779 9.26565 3.96779C9.19881 3.96779 9.09854 3.95442 8.96485 3.92769C8.79105 3.04533 8.5103 2.36351 8.1226 1.88223H4.35255V6.8956L6.61859 6.79533C6.89934 6.78196 7.12661 6.65496 7.30041 6.41432C7.47421 6.17368 7.62127 5.85282 7.74159 5.45175H8.3833V9.42234H7.74159C7.58116 8.84747 7.42742 8.45977 7.28036 8.25924C7.1333 8.0587 6.89266 7.95175 6.55843 7.93838L4.35255 7.81806V13.032H8.62394C9.02501 12.4705 9.31244 11.7151 9.48624 10.7659C9.64667 10.7392 9.77367 10.7258 9.86726 10.7258C9.9341 10.7258 10.0745 10.7392 10.2884 10.7659L10.1079 14.1951H0.622601L0.742921 13.4531ZM15.7862 14.3354C14.5696 14.3354 13.6538 13.9477 13.0388 13.1723C12.4239 12.3969 12.1164 11.2405 12.1164 9.70309C12.1164 8.0587 12.5041 6.8087 13.2795 5.95309C14.0549 5.0841 15.1779 4.64961 16.6485 4.64961C17.2233 4.64961 17.7915 4.76325 18.353 4.99052V2.82474C18.353 2.33009 18.2527 1.99587 18.0522 1.82207C17.8517 1.6349 17.4907 1.52795 16.9693 1.50121L17.0094 0.919662C17.6244 0.812711 18.3798 0.61886 19.2755 0.338111L19.6765 0.217791L20.0776 0.418325V12.9718C20.3851 13.2124 20.8463 13.3929 21.4613 13.5132L21.4011 14.1951H18.5134L18.353 13.0119C17.7915 13.8943 16.9359 14.3354 15.7862 14.3354ZM15.9666 13.4731C16.742 13.4731 17.3303 13.159 17.7314 12.5306C18.1458 11.9023 18.353 10.9598 18.353 9.70309V5.89293C18.1124 5.77261 17.8584 5.67902 17.591 5.61218C17.3236 5.53196 16.9894 5.49186 16.5883 5.49186C15.7327 5.49186 15.0642 5.8595 14.583 6.5948C14.115 7.33009 13.8811 8.36619 13.8811 9.70309C13.8811 10.9999 14.0482 11.9558 14.3824 12.5707C14.73 13.1723 15.2581 13.4731 15.9666 13.4731ZM27.7687 14.3354C25.6163 14.3354 24.5401 13.2592 24.5401 11.1068V7.1964C24.5401 6.70175 24.4399 6.36753 24.2393 6.19373C24.0388 6.00656 23.6778 5.89961 23.1564 5.87287L23.1966 5.29132C23.8115 5.18437 24.5669 4.99052 25.4626 4.70977L25.8637 4.58945L26.2647 4.78999V11.3274C26.2647 11.9825 26.3984 12.4972 26.6658 12.8715C26.9466 13.2459 27.3877 13.433 27.9893 13.433C28.3369 13.433 28.7046 13.306 29.0923 13.052C29.48 12.7846 29.8209 12.3836 30.115 11.8488V7.1964C30.115 6.70175 30.0081 6.36753 29.7942 6.19373C29.5936 6.00656 29.2327 5.89961 28.7113 5.87287L28.7714 5.29132C29.3864 5.18437 30.1417 4.99052 31.0375 4.70977L31.4385 4.58945L31.8196 4.78999V12.9518C31.9399 13.0587 32.1337 13.1657 32.4011 13.2726C32.6685 13.3662 32.9359 13.4397 33.2032 13.4932L33.1431 14.1951H30.476L30.2754 12.9317C29.9278 13.3996 29.5335 13.7539 29.0923 13.9945C28.6645 14.2218 28.2233 14.3354 27.7687 14.3354ZM35.8082 2.06271C35.514 1.83544 35.113 1.66164 34.6049 1.54132L34.6852 0.819395H39.5582L39.4378 1.54132C38.7427 1.6349 38.1678 1.81539 37.7132 2.08276L40.3603 11.0066L43.3483 0.819395H43.99L47.1985 10.9665L49.5849 2.08276C49.0501 1.80202 48.4419 1.62153 47.76 1.54132L47.8603 0.819395H52.2721L52.1517 1.54132C51.7106 1.62153 51.3095 1.78865 50.9485 2.04266L47.4793 14.1951H46.5167L43.4285 4.93036L40.621 14.1951H39.6584L35.8082 2.06271ZM53.3205 13.4731C53.628 13.4197 53.8753 13.3595 54.0625 13.2927C54.2496 13.2258 54.4435 13.1189 54.644 12.9718V7.1964C54.644 6.70175 54.5371 6.36753 54.3232 6.19373C54.1226 6.00656 53.7617 5.89961 53.2403 5.87287L53.3004 5.29132C53.8352 5.19774 54.3833 5.06405 54.9448 4.89025C55.5197 4.71646 55.8539 4.61619 55.9475 4.58945L56.3486 4.81004V12.9718C56.6828 13.2124 57.1507 13.3929 57.7523 13.5132L57.6721 14.1951H53.2403L53.3205 13.4731ZM55.2657 3.10549C54.5705 3.10549 54.2229 2.71779 54.2229 1.94239C54.2229 1.16699 54.5705 0.779288 55.2657 0.779288C55.6133 0.779288 55.874 0.879556 56.0478 1.08009C56.2349 1.28062 56.3285 1.56806 56.3285 1.94239C56.3285 2.31672 56.2349 2.60416 56.0478 2.80469C55.874 3.00522 55.6133 3.10549 55.2657 3.10549ZM62.6723 14.3154C62.2044 14.3154 61.6629 14.2419 61.048 14.0948C60.4464 13.9344 59.9918 13.7539 59.6843 13.5534V11.0868L60.7472 10.9464C60.8006 11.5079 60.8608 11.9558 60.9277 12.29C61.0079 12.6108 61.1282 12.9183 61.2886 13.2124C61.7164 13.3461 62.2311 13.413 62.8327 13.413C63.3809 13.413 63.8287 13.2659 64.1763 12.9718C64.5239 12.6777 64.6977 12.31 64.6977 11.8689C64.6977 11.4277 64.5239 11.1001 64.1763 10.8862C63.8421 10.659 63.3073 10.4183 62.572 10.1643C61.9571 9.95041 61.4557 9.7432 61.068 9.54266C60.6937 9.34213 60.3728 9.05469 60.1055 8.68036C59.8381 8.30603 59.7044 7.82475 59.7044 7.23651C59.7044 6.43437 59.9985 5.80603 60.5867 5.35148C61.1883 4.89694 62.0105 4.66966 63.0533 4.66966C63.6148 4.66966 64.1295 4.75656 64.5974 4.93036C65.0787 5.10416 65.4597 5.3448 65.7405 5.65228C66.0212 5.9464 66.1616 6.27394 66.1616 6.63491C66.1616 7.33009 65.8541 7.67769 65.2392 7.67769C64.9851 7.67769 64.7712 7.63758 64.5974 7.55737C64.437 7.46378 64.29 7.32341 64.1563 7.13624C64.3835 6.97581 64.4972 6.73517 64.4972 6.41432C64.4972 6.13357 64.3434 5.9063 64.0359 5.7325C63.7418 5.5587 63.3742 5.4718 62.933 5.4718C62.3982 5.4718 61.9771 5.59212 61.6696 5.83277C61.3621 6.07341 61.2084 6.40095 61.2084 6.81539C61.2084 7.14961 61.3087 7.43036 61.5092 7.65763C61.7231 7.87154 61.9771 8.04533 62.2712 8.17902C62.5654 8.31271 62.9865 8.47314 63.5346 8.66031C64.1095 8.87421 64.5774 9.08143 64.9383 9.28197C65.3127 9.4825 65.6269 9.76325 65.8809 10.1242C66.1349 10.4718 66.2619 10.9197 66.2619 11.4678C66.2619 12.3635 65.9477 13.0654 65.3194 13.5734C64.691 14.0681 63.8087 14.3154 62.6723 14.3154ZM72.4103 14.3354C70.913 14.3354 69.8368 13.9277 69.1817 13.1122C68.54 12.2833 68.2191 11.0534 68.2191 9.42234C68.2191 7.93838 68.5734 6.77528 69.282 5.93303C70.0039 5.07742 71.0467 4.64961 72.4103 4.64961C73.7338 4.64961 74.663 4.9972 75.1977 5.69239C75.7325 6.38758 76.0199 7.41699 76.06 8.78063L75.6389 9.32207H70.064V9.42234C70.064 10.2913 70.1175 10.9999 70.2245 11.548C70.3314 12.0961 70.5654 12.5373 70.9263 12.8715C71.2873 13.1924 71.8221 13.3528 72.5306 13.3528C73.0654 13.3528 73.5534 13.2526 73.9945 13.052C74.4357 12.8515 74.8034 12.6376 75.0975 12.4103L75.5988 13.0119C75.2646 13.3194 74.8301 13.6202 74.2953 13.9143C73.7606 14.1951 73.1322 14.3354 72.4103 14.3354ZM74.2552 8.43972C74.2552 7.38357 74.1149 6.62154 73.8341 6.15362C73.5667 5.68571 73.0654 5.45175 72.3301 5.45175C71.5681 5.45175 71.0066 5.7325 70.6456 6.294C70.2846 6.84212 70.0908 7.60416 70.064 8.58009L74.2552 8.43972Z" fill="#04347B"/>
<path d="M0.550408 20.6389H3.55041V21.3047H1.28035V22.9812H3.07715V23.655H1.28035V25.5881H3.61458V26.2539H0.550408V20.6389ZM8.7625 20.2379V26.2539H8.14485L8.0887 25.8929C7.96571 26.0373 7.81865 26.147 7.64752 26.2218C7.4764 26.2967 7.28923 26.3341 7.08603 26.3341C6.78121 26.3341 6.50849 26.2459 6.26784 26.0694C6.0272 25.8876 5.83736 25.6416 5.69832 25.3314C5.55929 25.0213 5.48977 24.6764 5.48977 24.2967C5.48977 23.9277 5.55394 23.5881 5.68228 23.278C5.81597 22.9625 6.00314 22.7111 6.24378 22.524C6.48977 22.3368 6.77052 22.2432 7.08603 22.2432C7.4764 22.2432 7.8026 22.3796 8.06464 22.6523V20.2379H8.7625ZM7.15822 25.7165C7.45234 25.7165 7.68763 25.6015 7.8641 25.3716C8.04057 25.1363 8.12881 24.778 8.12881 24.2967C8.12881 23.8314 8.04057 23.4785 7.8641 23.2379C7.68763 22.9919 7.45234 22.8689 7.15822 22.8689C6.9764 22.8689 6.8133 22.9304 6.66891 23.0534C6.52453 23.1764 6.40956 23.3475 6.32399 23.5667C6.24378 23.7806 6.20367 24.024 6.20367 24.2967C6.20367 24.5534 6.24378 24.7913 6.32399 25.0106C6.40956 25.2245 6.52453 25.3956 6.66891 25.524C6.81865 25.6523 6.98175 25.7165 7.15822 25.7165ZM13.9538 22.3234V26.2539H13.3603L13.3121 25.7726C13.2052 25.9491 13.0608 26.0881 12.879 26.1897C12.6972 26.286 12.4966 26.3341 12.2774 26.3341C11.8656 26.3341 11.5581 26.1978 11.3549 25.925C11.157 25.647 11.0581 25.2512 11.0581 24.7379V22.3234H11.756V24.6496C11.756 25.0026 11.8068 25.2673 11.9084 25.4437C12.0153 25.6149 12.1918 25.7004 12.4378 25.7004C12.6089 25.7004 12.764 25.6523 12.903 25.556C13.0421 25.4598 13.1597 25.3261 13.256 25.155V22.3234H13.9538ZM18.0015 26.3341C17.4026 26.3341 16.948 26.147 16.6379 25.7726C16.3277 25.3929 16.1726 24.9063 16.1726 24.3127C16.1726 23.6978 16.3277 23.2004 16.6379 22.8207C16.948 22.4357 17.4079 22.2432 18.0176 22.2432C18.3438 22.2432 18.6352 22.3101 18.8919 22.4437L18.7796 23.0614C18.5389 22.933 18.2876 22.8689 18.0256 22.8689C17.6673 22.8689 17.3865 22.9945 17.1833 23.2459C16.9855 23.4919 16.8865 23.8368 16.8865 24.2806C16.8865 24.7245 16.9881 25.0748 17.1914 25.3314C17.3999 25.5881 17.686 25.7165 18.0496 25.7165C18.3277 25.7165 18.5737 25.6523 18.7876 25.524L18.8839 26.1496C18.7769 26.2031 18.6432 26.2459 18.4828 26.278C18.3224 26.3154 18.1619 26.3341 18.0015 26.3341ZM21.7697 26.3341C21.4702 26.3341 21.2242 26.2272 21.0317 26.0133C20.8392 25.7994 20.7429 25.5266 20.7429 25.1951C20.7429 24.7031 20.9488 24.3502 21.3606 24.1363C21.7724 23.917 22.2323 23.802 22.7403 23.7913C22.7403 23.4491 22.6895 23.2111 22.5879 23.0774C22.4863 22.9437 22.3151 22.8769 22.0745 22.8769C21.7643 22.8769 21.4488 22.9972 21.128 23.2379L21.0397 22.6523C21.3766 22.3796 21.767 22.2432 22.2109 22.2432C22.6333 22.2432 22.9462 22.3662 23.1494 22.6122C23.3526 22.8528 23.4542 23.2432 23.4542 23.7833V24.9304C23.4542 25.2352 23.4756 25.4518 23.5183 25.5801C23.5611 25.7031 23.6547 25.7646 23.7991 25.7646H23.8873L23.7991 26.3341H23.6467C23.4007 26.3341 23.2189 26.2887 23.1012 26.1978C22.9836 26.1068 22.8873 25.9598 22.8125 25.7566C22.6895 25.9331 22.5371 26.0748 22.3552 26.1817C22.1734 26.2833 21.9782 26.3341 21.7697 26.3341ZM21.9863 25.7646C22.1146 25.7646 22.2483 25.7165 22.3873 25.6202C22.5264 25.5186 22.644 25.3876 22.7403 25.2272V24.2887C22.3285 24.3101 22.0157 24.3903 21.8018 24.5293C21.5879 24.663 21.4809 24.8716 21.4809 25.155C21.4809 25.5614 21.6494 25.7646 21.9863 25.7646ZM27.0456 26.3341C26.7408 26.3341 26.5135 26.2432 26.3638 26.0614C26.2194 25.8796 26.1472 25.6576 26.1472 25.3956V22.8769H25.6018L25.666 22.3234H26.1472V21.3528L26.8451 21.2806V22.3234H27.6954V22.8769H26.8451V25.1149C26.8451 25.3555 26.8879 25.524 26.9734 25.6202C27.0643 25.7165 27.2194 25.7646 27.4387 25.7646H27.6873L27.6232 26.3341H27.0456ZM29.8038 20.6389H30.5017V21.433H29.8038V20.6389ZM29.8038 22.3234H30.5017V26.2539H29.8038V22.3234ZM34.3608 26.3341C34.0078 26.3341 33.703 26.2459 33.4463 26.0694C33.1896 25.8876 32.9918 25.6416 32.8527 25.3314C32.7191 25.0213 32.6522 24.6737 32.6522 24.2887C32.6522 23.9036 32.7191 23.556 32.8527 23.2459C32.9918 22.9357 33.1896 22.6924 33.4463 22.5159C33.703 22.3341 34.0078 22.2432 34.3608 22.2432C34.7084 22.2432 35.0105 22.3341 35.2672 22.5159C35.5239 22.6924 35.7191 22.9357 35.8527 23.2459C35.9864 23.556 36.0533 23.9036 36.0533 24.2887C36.0533 24.6737 35.9864 25.0213 35.8527 25.3314C35.7191 25.6416 35.5239 25.8876 35.2672 26.0694C35.0105 26.2459 34.7084 26.3341 34.3608 26.3341ZM34.3608 25.7165C34.6709 25.7165 34.9116 25.5908 35.0827 25.3395C35.2538 25.0881 35.3394 24.7379 35.3394 24.2887C35.3394 23.8395 35.2538 23.4919 35.0827 23.2459C34.9116 22.9945 34.6709 22.8689 34.3608 22.8689C34.0399 22.8689 33.7939 22.9945 33.6228 23.2459C33.4517 23.4919 33.3661 23.8395 33.3661 24.2887C33.3661 24.7432 33.4517 25.0962 33.6228 25.3475C33.7939 25.5935 34.0399 25.7165 34.3608 25.7165ZM39.8528 22.2432C40.2593 22.2432 40.5694 22.4036 40.7833 22.7245C41.0026 23.04 41.1122 23.4678 41.1122 24.0079V26.2539H40.4143V24.0962C40.4143 23.679 40.3528 23.3716 40.2299 23.1737C40.1122 22.9705 39.9331 22.8689 39.6924 22.8689C39.516 22.8689 39.3528 22.9197 39.2031 23.0213C39.0534 23.1175 38.9277 23.2539 38.8261 23.4304V26.2539H38.1283V22.3234H38.7218L38.77 22.8127C38.8823 22.6363 39.032 22.4972 39.2192 22.3956C39.4117 22.294 39.6229 22.2432 39.8528 22.2432ZM49.0384 24.7298H47.2978L46.8486 26.2539H46.0625L47.7871 20.6389H48.5411L50.2657 26.2539H49.4876L49.0384 24.7298ZM48.8379 24.048L48.1641 21.7699L47.4983 24.048H48.8379ZM53.9398 22.2432C54.2553 22.2432 54.528 22.3368 54.758 22.524C54.9933 22.7111 55.1724 22.9625 55.2954 23.278C55.4184 23.5881 55.4799 23.925 55.4799 24.2887C55.4799 24.6683 55.4157 25.0159 55.2874 25.3314C55.159 25.6416 54.9772 25.8876 54.7419 26.0694C54.512 26.2459 54.2446 26.3341 53.9398 26.3341C53.7259 26.3341 53.5254 26.294 53.3382 26.2138C53.1564 26.1336 53.004 26.0186 52.881 25.8689L52.8489 26.2539H52.2152V20.2379H52.9131V22.7004C53.1911 22.3956 53.5334 22.2432 53.9398 22.2432ZM53.8195 25.7165C54.1029 25.7165 54.3302 25.5801 54.5013 25.3074C54.6778 25.0293 54.766 24.6897 54.766 24.2887C54.766 23.8769 54.6804 23.5373 54.5093 23.2699C54.3382 23.0026 54.1082 22.8689 53.8195 22.8689C53.5307 22.8689 53.2954 22.9919 53.1136 23.2379C52.9371 23.4785 52.8489 23.8288 52.8489 24.2887C52.8489 24.7646 52.9371 25.1229 53.1136 25.3635C53.2954 25.5988 53.5307 25.7165 53.8195 25.7165ZM57.7033 22.3234H58.2729L58.3611 22.9812C58.5376 22.7245 58.7033 22.5373 58.8584 22.4197C59.0188 22.302 59.1873 22.2432 59.3638 22.2432C59.4333 22.2432 59.4948 22.2512 59.5483 22.2673L59.4761 23.0614C59.4065 23.0453 59.3263 23.0373 59.2354 23.0373C59.0589 23.0373 58.8932 23.0828 58.7381 23.1737C58.583 23.2593 58.4707 23.3609 58.4012 23.4785V26.2539H57.7033V22.3234ZM62.9342 26.3341C62.5812 26.3341 62.2764 26.2459 62.0197 26.0694C61.763 25.8876 61.5652 25.6416 61.4261 25.3314C61.2924 25.0213 61.2256 24.6737 61.2256 24.2887C61.2256 23.9036 61.2924 23.556 61.4261 23.2459C61.5652 22.9357 61.763 22.6924 62.0197 22.5159C62.2764 22.3341 62.5812 22.2432 62.9342 22.2432C63.2818 22.2432 63.5839 22.3341 63.8406 22.5159C64.0973 22.6924 64.2924 22.9357 64.4261 23.2459C64.5598 23.556 64.6267 23.9036 64.6267 24.2887C64.6267 24.6737 64.5598 25.0213 64.4261 25.3314C64.2924 25.6416 64.0973 25.8876 63.8406 26.0694C63.5839 26.2459 63.2818 26.3341 62.9342 26.3341ZM62.9342 25.7165C63.2443 25.7165 63.485 25.5908 63.6561 25.3395C63.8272 25.0881 63.9128 24.7379 63.9128 24.2887C63.9128 23.8395 63.8272 23.4919 63.6561 23.2459C63.485 22.9945 63.2443 22.8689 62.9342 22.8689C62.6133 22.8689 62.3673 22.9945 62.1962 23.2459C62.0251 23.4919 61.9395 23.8395 61.9395 24.2887C61.9395 24.7432 62.0251 25.0962 62.1962 25.3475C62.3673 25.5935 62.6133 25.7165 62.9342 25.7165ZM67.5198 26.3341C67.2204 26.3341 66.9744 26.2272 66.7819 26.0133C66.5893 25.7994 66.4931 25.5266 66.4931 25.1951C66.4931 24.7031 66.699 24.3502 67.1107 24.1363C67.5225 23.917 67.9824 23.802 68.4904 23.7913C68.4904 23.4491 68.4396 23.2111 68.338 23.0774C68.2364 22.9437 68.0653 22.8769 67.8246 22.8769C67.5145 22.8769 67.199 22.9972 66.8781 23.2379L66.7899 22.6523C67.1268 22.3796 67.5172 22.2432 67.961 22.2432C68.3835 22.2432 68.6963 22.3662 68.8995 22.6122C69.1027 22.8528 69.2043 23.2432 69.2043 23.7833V24.9304C69.2043 25.2352 69.2257 25.4518 69.2685 25.5801C69.3113 25.7031 69.4049 25.7646 69.5492 25.7646H69.6375L69.5492 26.3341H69.3968C69.1508 26.3341 68.969 26.2887 68.8514 26.1978C68.7337 26.1068 68.6375 25.9598 68.5626 25.7566C68.4396 25.9331 68.2872 26.0748 68.1054 26.1817C67.9236 26.2833 67.7284 26.3341 67.5198 26.3341ZM67.7364 25.7646C67.8647 25.7646 67.9984 25.7165 68.1375 25.6202C68.2765 25.5186 68.3942 25.3876 68.4904 25.2272V24.2887C68.0787 24.3101 67.7658 24.3903 67.5519 24.5293C67.338 24.663 67.2311 24.8716 67.2311 25.155C67.2311 25.5614 67.3995 25.7646 67.7364 25.7646ZM74.7679 20.2379V26.2539H74.1503L74.0941 25.8929C73.9711 26.0373 73.8241 26.147 73.6529 26.2218C73.4818 26.2967 73.2946 26.3341 73.0914 26.3341C72.7866 26.3341 72.5139 26.2459 72.2733 26.0694C72.0326 25.8876 71.8428 25.6416 71.7037 25.3314C71.5647 25.0213 71.4952 24.6764 71.4952 24.2967C71.4952 23.9277 71.5593 23.5881 71.6877 23.278C71.8214 22.9625 72.0085 22.7111 72.2492 22.524C72.4952 22.3368 72.7759 22.2432 73.0914 22.2432C73.4818 22.2432 73.808 22.3796 74.07 22.6523V20.2379H74.7679ZM73.1636 25.7165C73.4577 25.7165 73.693 25.6015 73.8695 25.3716C74.046 25.1363 74.1342 24.778 74.1342 24.2967C74.1342 23.8314 74.046 23.4785 73.8695 23.2379C73.693 22.9919 73.4577 22.8689 73.1636 22.8689C72.9818 22.8689 72.8187 22.9304 72.6743 23.0534C72.5299 23.1764 72.415 23.3475 72.3294 23.5667C72.2492 23.7806 72.2091 24.024 72.2091 24.2967C72.2091 24.5534 72.2492 24.7913 72.3294 25.0106C72.415 25.2245 72.5299 25.3956 72.6743 25.524C72.8241 25.6523 72.9872 25.7165 73.1636 25.7165Z" fill="#3898FF"/>
</svg>
